<?xml version="1.0" standalone="no"?><!DOCTYPE svg PUBLIC "-//W3C//DTD SVG 1.1//EN" "http://www.w3.org/Graphics/SVG/1.1/DTD/svg11.dtd"><svg t="1772448351102" class="icon" viewBox="0 0 1024 1024" version="1.1" xmlns="http://www.w3.org/2000/svg" p-id="9327" xmlns:xlink="http://www.w3.org/1999/xlink" width="200" height="200"><path d="M511.998 0.693C229.419 0.693 0.345 229.767 0.345 512.346s229.074 511.653 511.653 511.653 511.653-229.074 511.653-511.653C1023.651 229.768 794.576 0.693 511.998 0.693z m0 986.468c-262.232 0-474.813-212.582-474.813-474.814S249.766 37.533 511.998 37.533c262.232 0 474.814 212.582 474.814 474.814S774.23 987.161 511.998 987.161z m285.926-692.598c-32.779 0-59.352 26.573-59.352 59.352a59.088 59.088 0 0 0 11.921 35.678L629.92 533.287a59.242 59.242 0 0 0-18.229-2.864c-14.317 0-27.45 5.07-37.703 13.513l-115.473-80.854a59.662 59.662 0 0 0 1.225-12.044c0-32.779-26.572-59.352-59.352-59.352s-59.352 26.572-59.352 59.352a59.062 59.062 0 0 0 10.618 33.862l-98.372 117.236a59.098 59.098 0 0 0-24.291-5.201c-32.778 0-59.352 26.573-59.352 59.352s26.573 59.352 59.352 59.352c32.78 0 59.352-26.573 59.352-59.352a59.05 59.05 0 0 0-7.777-29.356l100.502-119.773a59.221 59.221 0 0 0 19.318 3.233c15.267 0 29.184-5.769 39.699-15.239l114.097 79.892a59.375 59.375 0 0 0-1.847 14.732c0 32.778 26.573 59.352 59.352 59.352 32.78 0 59.353-26.573 59.353-59.352a59.069 59.069 0 0 0-11.261-34.766l121.044-144.255a59.316 59.316 0 0 0 17.098 2.512c32.779 0 59.352-26.573 59.352-59.352 0-32.779-26.57-59.352-59.349-59.352z" fill="#d4237a" p-id="9328"></path></svg>